<?xml version="1.0" encoding="UTF-8" standalone="no"?>
<!-- Created with Inkscape (http://www.inkscape.org/) -->

<svg
   xmlns:dc="http://purl.org/dc/elements/1.1/"
   xmlns:cc="http://creativecommons.org/ns#"
   xmlns:rdf="http://www.w3.org/1999/02/22-rdf-syntax-ns#"
   xmlns:svg="http://www.w3.org/2000/svg"
   xmlns="http://www.w3.org/2000/svg"
   xmlns:xlink="http://www.w3.org/1999/xlink"
   xmlns:sodipodi="http://sodipodi.sourceforge.net/DTD/sodipodi-0.dtd"
   xmlns:inkscape="http://www.inkscape.org/namespaces/inkscape"
   width="128"
   height="128"
   viewBox="0 0 33.866666 33.866666"
   version="1.1"
   id="svg8"
   inkscape:version="0.92.1 r15371"
   sodipodi:docname="logo.svg"
   inkscape:export-filename="D:\Documents\Web\hermod\logo.png"
   inkscape:export-xdpi="96.000008"
   inkscape:export-ydpi="96.000008">
  <defs
     id="defs2">
    <linearGradient
       inkscape:collect="always"
       id="linearGradient5170">
      <stop
         style="stop-color:#a0892c;stop-opacity:1"
         offset="0"
         id="stop5166" />
      <stop
         style="stop-color:#b29831;stop-opacity:1"
         offset="1"
         id="stop5168" />
    </linearGradient>
    <linearGradient
       inkscape:collect="always"
       id="linearGradient5162">
      <stop
         style="stop-color:#aaeeff;stop-opacity:1"
         offset="0"
         id="stop5158" />
      <stop
         style="stop-color:#87cdde;stop-opacity:1"
         offset="1"
         id="stop5160" />
    </linearGradient>
    <linearGradient
       inkscape:collect="always"
       id="linearGradient5025">
      <stop
         style="stop-color:#e9ddaf;stop-opacity:1"
         offset="0"
         id="stop5021" />
      <stop
         style="stop-color:#ffeeaa;stop-opacity:1"
         offset="1"
         id="stop5023" />
    </linearGradient>
    <linearGradient
       inkscape:collect="always"
       id="linearGradient5009">
      <stop
         style="stop-color:#d1d1d1;stop-opacity:1"
         offset="0"
         id="stop5005" />
      <stop
         style="stop-color:#bdbdbd;stop-opacity:1"
         offset="1"
         id="stop5007" />
    </linearGradient>
    <linearGradient
       inkscape:collect="always"
       id="linearGradient4638">
      <stop
         style="stop-color:#c3b559;stop-opacity:1"
         offset="0"
         id="stop4634" />
      <stop
         style="stop-color:#b5a642;stop-opacity:1"
         offset="1"
         id="stop4636" />
    </linearGradient>
    <linearGradient
       id="linearGradient4625"
       inkscape:collect="always">
      <stop
         id="stop4629"
         offset="0"
         style="stop-color:#dfd3cc;stop-opacity:1" />
      <stop
         id="stop4631"
         offset="1"
         style="stop-color:#d1d1d1;stop-opacity:1" />
    </linearGradient>
    <radialGradient
       inkscape:collect="always"
       xlink:href="#linearGradient4625"
       id="radialGradient4627"
       cx="77.847008"
       cy="87.107468"
       fx="77.847008"
       fy="87.107468"
       r="45.551498"
       gradientTransform="matrix(0.23750099,0,0,0.15935865,30.725609,132.11666)"
       gradientUnits="userSpaceOnUse" />
    <linearGradient
       inkscape:collect="always"
       xlink:href="#linearGradient4638"
       id="linearGradient4642"
       x1="77.998344"
       y1="101.35945"
       x2="123.39873"
       y2="101.35945"
       gradientUnits="userSpaceOnUse"
       spreadMethod="reflect" />
    <linearGradient
       inkscape:collect="always"
       xlink:href="#linearGradient4638"
       id="linearGradient4882"
       gradientUnits="userSpaceOnUse"
       gradientTransform="scale(3.7795275)"
       x1="77.998344"
       y1="101.35945"
       x2="123.39873"
       y2="101.35945"
       spreadMethod="reflect" />
    <linearGradient
       inkscape:collect="always"
       xlink:href="#linearGradient4638"
       id="linearGradient4967"
       gradientUnits="userSpaceOnUse"
       gradientTransform="matrix(0.25548974,0,0,0.25243999,29.325238,126.47404)"
       x1="77.998344"
       y1="101.35945"
       x2="123.39873"
       y2="101.35945"
       spreadMethod="reflect" />
    <radialGradient
       inkscape:collect="always"
       xlink:href="#linearGradient5009"
       id="radialGradient4627-2"
       cx="77.847008"
       cy="87.107468"
       fx="77.847008"
       fy="87.107468"
       r="45.551498"
       gradientTransform="matrix(0.23750099,0,0,0.13520614,30.72561,132.86916)"
       gradientUnits="userSpaceOnUse" />
    <linearGradient
       inkscape:collect="always"
       xlink:href="#linearGradient4638"
       id="linearGradient5017"
       x1="154.27734"
       y1="358.47559"
       x2="434.17383"
       y2="358.47559"
       gradientUnits="userSpaceOnUse"
       gradientTransform="matrix(0.06759834,0,0,0.06679142,29.325238,126.47404)" />
    <linearGradient
       inkscape:collect="always"
       xlink:href="#linearGradient5025"
       id="linearGradient5029"
       gradientUnits="userSpaceOnUse"
       x1="117.71271"
       y1="84.777306"
       x2="37.952206"
       y2="134.28123"
       gradientTransform="translate(-151.17359,-219.05854)" />
    <linearGradient
       inkscape:collect="always"
       xlink:href="#linearGradient5162"
       id="linearGradient5056"
       x1="66.851097"
       y1="107.17532"
       x2="99.342522"
       y2="112.72491"
       gradientUnits="userSpaceOnUse" />
    <linearGradient
       inkscape:collect="always"
       xlink:href="#linearGradient5162"
       id="linearGradient5063"
       gradientUnits="userSpaceOnUse"
       gradientTransform="translate(-151.17359,-219.05854)"
       x1="115.09159"
       y1="95.090508"
       x2="40.573318"
       y2="115.83101" />
    <linearGradient
       inkscape:collect="always"
       xlink:href="#linearGradient5162"
       id="linearGradient5156"
       x1="35.153542"
       y1="96.769836"
       x2="120.89686"
       y2="96.769836"
       gradientUnits="userSpaceOnUse" />
    <linearGradient
       inkscape:collect="always"
       xlink:href="#linearGradient5170"
       id="linearGradient5172"
       x1="39.621353"
       y1="81.9599"
       x2="36.466034"
       y2="82.438568"
       gradientUnits="userSpaceOnUse"
       gradientTransform="matrix(0.34423431,0,0,0.3401252,36.015828,119.41579)" />
    <linearGradient
       inkscape:collect="always"
       xlink:href="#linearGradient5170"
       id="linearGradient5172-6"
       x1="39.621353"
       y1="81.9599"
       x2="36.466034"
       y2="82.438568"
       gradientUnits="userSpaceOnUse"
       gradientTransform="matrix(0.34423431,0,0,0.3401252,46.412163,119.27252)" />
    <linearGradient
       inkscape:collect="always"
       xlink:href="#linearGradient5170"
       id="linearGradient5172-3"
       x1="39.621353"
       y1="81.9599"
       x2="36.466034"
       y2="82.438568"
       gradientUnits="userSpaceOnUse"
       gradientTransform="matrix(0.34423431,0,0,0.3401252,25.619495,119.27252)" />
    <linearGradient
       inkscape:collect="always"
       xlink:href="#linearGradient5170"
       id="linearGradient5172-4"
       x1="39.621353"
       y1="81.9599"
       x2="36.466034"
       y2="82.438568"
       gradientUnits="userSpaceOnUse"
       gradientTransform="matrix(0.34423431,0,0,0.3401252,28.218577,118.3988)" />
    <linearGradient
       inkscape:collect="always"
       xlink:href="#linearGradient5170"
       id="linearGradient5172-2"
       x1="39.621353"
       y1="81.9599"
       x2="36.466034"
       y2="82.438568"
       gradientUnits="userSpaceOnUse"
       gradientTransform="matrix(0.34423431,0,0,0.3401252,43.81308,118.3988)" />
    <linearGradient
       inkscape:collect="always"
       xlink:href="#linearGradient5170"
       id="linearGradient5172-0"
       x1="39.621353"
       y1="81.9599"
       x2="36.466034"
       y2="82.438568"
       gradientUnits="userSpaceOnUse"
       gradientTransform="matrix(0.34423431,0,0,0.3401252,33.416747,118.44602)" />
    <linearGradient
       inkscape:collect="always"
       xlink:href="#linearGradient5170"
       id="linearGradient5172-38"
       x1="39.621353"
       y1="81.9599"
       x2="36.466034"
       y2="82.438568"
       gradientUnits="userSpaceOnUse"
       gradientTransform="matrix(0.34423431,0,0,0.3401252,38.614911,118.44602)" />
    <linearGradient
       inkscape:collect="always"
       xlink:href="#linearGradient5170"
       id="linearGradient5172-1"
       x1="39.621353"
       y1="81.9599"
       x2="36.466034"
       y2="82.438568"
       gradientUnits="userSpaceOnUse"
       gradientTransform="matrix(0.34423431,0,0,0.3401252,30.817661,118.23349)" />
    <linearGradient
       inkscape:collect="always"
       xlink:href="#linearGradient5170"
       id="linearGradient5172-7"
       x1="39.621353"
       y1="81.9599"
       x2="36.466034"
       y2="82.438568"
       gradientUnits="userSpaceOnUse"
       gradientTransform="matrix(0.34423431,0,0,0.3401252,41.213995,118.25712)" />
  </defs>
  <sodipodi:namedview
     id="base"
     pagecolor="#ffffff"
     bordercolor="#666666"
     borderopacity="1.0"
     inkscape:pageopacity="0.0"
     inkscape:pageshadow="2"
     inkscape:zoom="4"
     inkscape:cx="61.990353"
     inkscape:cy="37.634836"
     inkscape:document-units="mm"
     inkscape:current-layer="layer1"
     showgrid="false"
     showguides="true"
     inkscape:guide-bbox="true"
     inkscape:window-width="1920"
     inkscape:window-height="1017"
     inkscape:window-x="-8"
     inkscape:window-y="-8"
     inkscape:window-maximized="1"
     fit-margin-top="0"
     fit-margin-left="0"
     fit-margin-right="0"
     fit-margin-bottom="0"
     units="px" />
  <metadata
     id="metadata5">
    <rdf:RDF>
      <cc:Work
         rdf:about="">
        <dc:format>image/svg+xml</dc:format>
        <dc:type
           rdf:resource="http://purl.org/dc/dcmitype/StillImage" />
        <dc:title></dc:title>
      </cc:Work>
    </rdf:RDF>
  </metadata>
  <g
     inkscape:label="Calque 1"
     inkscape:groupmode="layer"
     id="layer1"
     transform="translate(-32.281031,-137.8295)">
    <g
       id="g5061"
       transform="matrix(0.28368929,0,0,0.35295846,28.404539,116.24197)">
      <rect
         transform="scale(-1)"
         y="-134.28123"
         x="-113.22139"
         height="49.503933"
         width="79.760506"
         id="rect5019"
         style="color:#000000;display:inline;overflow:visible;visibility:visible;opacity:1;vector-effect:none;fill:url(#linearGradient5063);fill-opacity:1;fill-rule:evenodd;stroke:none;stroke-width:5.44999981;stroke-linecap:round;stroke-linejoin:round;stroke-miterlimit:4;stroke-dasharray:none;stroke-dashoffset:0;stroke-opacity:1;marker:none;paint-order:stroke fill markers;enable-background:accumulate" />
      <path
         transform="matrix(-0.93022997,0,0,0.43524402,145.92251,76.003028)"
         inkscape:transform-center-y="-5.3865703"
         d="m 78.025201,59.641895 42.871659,74.255885 -85.743318,0 z"
         inkscape:randomized="0"
         inkscape:rounded="-3.46945e-018"
         inkscape:flatsided="true"
         sodipodi:arg2="-0.52359878"
         sodipodi:arg1="-1.5707963"
         sodipodi:r2="24.751965"
         sodipodi:r1="49.503925"
         sodipodi:cy="109.14582"
         sodipodi:cx="78.0252"
         sodipodi:sides="3"
         id="path5033-5"
         style="color:#000000;display:inline;overflow:visible;visibility:visible;opacity:1;vector-effect:none;fill:url(#linearGradient5156);fill-opacity:1;fill-rule:evenodd;stroke:none;stroke-width:5.44999981;stroke-linecap:round;stroke-linejoin:round;stroke-miterlimit:4;stroke-dasharray:none;stroke-dashoffset:0;stroke-opacity:1;marker:none;paint-order:stroke fill markers;enable-background:accumulate"
         sodipodi:type="star" />
      <path
         transform="matrix(-0.93022997,0,0,-0.47265687,145.92251,148.06501)"
         inkscape:transform-center-y="5.8495865"
         inkscape:transform-center-x="-2.5310802e-006"
         d="m 78.025201,59.641895 42.871659,74.255885 -85.743318,0 z"
         inkscape:randomized="0"
         inkscape:rounded="-3.46945e-018"
         inkscape:flatsided="true"
         sodipodi:arg2="-0.52359878"
         sodipodi:arg1="-1.5707963"
         sodipodi:r2="24.751965"
         sodipodi:r1="49.503925"
         sodipodi:cy="109.14582"
         sodipodi:cx="78.0252"
         sodipodi:sides="3"
         id="path5033"
         style="color:#000000;display:inline;overflow:visible;visibility:visible;opacity:1;vector-effect:none;fill:url(#linearGradient5056);fill-opacity:1;fill-rule:evenodd;stroke:none;stroke-width:5.44999981;stroke-linecap:round;stroke-linejoin:round;stroke-miterlimit:4;stroke-dasharray:none;stroke-dashoffset:0;stroke-opacity:1;marker:none;paint-order:stroke fill markers;enable-background:accumulate"
         sodipodi:type="star" />
    </g>
    <path
       style="color:#000000;display:inline;overflow:visible;visibility:visible;opacity:1;vector-effect:none;fill:#d45500;fill-opacity:1;fill-rule:evenodd;stroke:#d45500;stroke-width:1.68830359;stroke-linecap:round;stroke-linejoin:round;stroke-miterlimit:4;stroke-dasharray:none;stroke-dashoffset:0;stroke-opacity:1;marker:none;paint-order:stroke fill markers;enable-background:accumulate"
       d="m 38.422406,147.25445 v 17.05817 c -2e-6,2.78354 7.609507,6.53939 10.778131,6.53939 3.168623,0 10.778131,-3.75585 10.77813,-6.53939 v -17.05817 h -0.219962 v 11.14157 c 0,3.28807 -2.680747,5.93514 -6.010643,5.93514 h -9.095546 c -3.329896,0 -6.010642,-2.64707 -6.010642,-5.93514 v -11.14157 z"
       id="path5124"
       inkscape:connector-curvature="0"
       sodipodi:nodetypes="ccssccsssscc" />
    <path
       style="color:#000000;display:inline;overflow:visible;visibility:visible;opacity:1;vector-effect:none;fill:url(#radialGradient4627);fill-opacity:1;fill-rule:evenodd;stroke:none;stroke-width:1.35998845;stroke-linecap:round;stroke-linejoin:round;stroke-miterlimit:4;stroke-dasharray:none;stroke-dashoffset:0;stroke-opacity:1;marker:none;paint-order:stroke fill markers;enable-background:accumulate"
       d="m 49.21433,137.96309 a 11.637941,10.362624 0 0 0 -11.548752,9.14493 c 0.01332,-0.0175 0.02129,-0.0353 0.03775,-0.0526 0.04067,-0.0426 0.09086,-0.0845 0.149984,-0.12536 0.05912,-0.041 0.127149,-0.081 0.20372,-0.12015 0.153141,-0.0782 0.340249,-0.15249 0.557158,-0.22203 0.216908,-0.0695 0.463683,-0.13434 0.73632,-0.19345 0.272636,-0.0591 0.571127,-0.1126 0.891453,-0.15955 0.320325,-0.0469 0.662449,-0.0874 1.022424,-0.1204 0.359977,-0.033 0.73778,-0.0586 1.129367,-0.076 0.391589,-0.0174 0.796989,-0.0266 1.21215,-0.0266 0.619683,3e-5 1.22364,0.0207 1.795052,0.0595 0.571412,0.0388 1.110245,0.0958 1.600048,0.16842 0.244901,0.0363 0.477539,0.0765 0.695787,0.1204 0.218249,0.0438 0.422145,0.0914 0.609573,0.1422 0.187429,0.0508 0.358377,0.10481 0.510817,0.16189 0.15244,0.057 0.286363,0.11714 0.399649,0.17988 0.113204,-0.0627 0.247077,-0.12272 0.399384,-0.17975 0.152307,-0.057 0.323036,-0.11114 0.510288,-0.1619 0.187254,-0.0507 0.391003,-0.0981 0.609046,-0.14193 0.218042,-0.0438 0.450454,-0.0842 0.695127,-0.12053 0.489345,-0.0726 1.027807,-0.12955 1.598726,-0.16842 0.57092,-0.0388 1.174232,-0.0596 1.79347,-0.0598 0.415142,2e-5 0.820581,0.009 1.212151,0.0266 0.391565,0.0174 0.769279,0.0429 1.129233,0.076 0.359956,0.033 0.702123,0.0735 1.022427,0.12054 0.3203,0.0469 0.618701,0.10041 0.891319,0.15953 0.272618,0.0591 0.519428,0.1238 0.736321,0.19334 0.216891,0.0695 0.403897,0.14381 0.557025,0.22202 0.07656,0.0391 0.144734,0.0791 0.203851,0.12015 0.05911,0.041 0.109188,0.0828 0.149854,0.12536 0.01339,0.014 0.01933,0.0286 0.03063,0.0428 a 11.637941,10.362624 0 0 0 -11.541358,-9.13515 z"
       id="path4504"
       inkscape:connector-curvature="0" />
    <path
       style="color:#000000;display:inline;overflow:visible;visibility:visible;opacity:1;vector-effect:none;fill:url(#linearGradient4967);fill-opacity:1;fill-rule:evenodd;stroke:none;stroke-width:0.90120566;stroke-linecap:round;stroke-linejoin:round;stroke-miterlimit:4;stroke-dasharray:none;stroke-dashoffset:0;stroke-opacity:1;marker:none;paint-order:stroke fill markers;enable-background:accumulate"
       d="m 43.605912,145.61108 c -3.321287,7e-5 -6.016859,0.58458 -6.028793,1.30726 h -6.83e-4 v 0.004 c -4.5e-5,2.8e-4 -6.4e-5,5.2e-4 -1.36e-4,7.7e-4 l 1.36e-4,5.3e-4 v 2.12102 c 0.0023,-0.003 0.0042,-0.006 0,9.4e-4 0.46764,1.21113 4.125077,6.19334 7.670429,6.21604 2.271963,0.0145 3.255856,0.65332 3.289611,1.63716 h 1.355662 c 0.03375,-0.98367 1.017685,-1.63703 3.289612,-1.63703 3.545606,-0.0228 7.202949,-5.00479 7.670561,-6.21591 -0.0042,-0.007 -0.0023,-0.004 0,-9.2e-4 v -2.12193 -0.005 h -0.0011 c -0.01195,-0.72265 -2.707266,-1.30713 -6.0284,-1.30727 -2.47695,5.3e-4 -4.700407,0.33065 -5.606041,0.83229 -0.906282,-0.502 -3.132189,-0.83218 -5.610923,-0.83229 z m 17.246422,3.4339 v 9.2e-4 c 0.0066,0.008 0.003,0.003 0,-9.2e-4 z m -23.275875,6.7e-4 v -9.5e-4 c -0.003,0.004 -0.0067,0.01 0,9.5e-4 z m 2.128027,-0.63608 c 0.488395,0 0.946212,0.0209 1.375467,0.0598 0.214627,0.0195 0.422084,0.0435 0.622644,0.0718 4.3e-5,1e-5 6.8e-5,0 1.36e-4,0 0.200556,0.0283 0.39409,0.0609 0.581054,0.0974 0.09348,0.0182 0.185239,0.0374 0.27541,0.0575 4.2e-5,1e-5 6.8e-5,-1e-5 1.36e-4,0 0.09012,0.0201 0.178627,0.0411 0.265508,0.0631 4.1e-5,0 6.7e-5,-2e-5 1.35e-4,0 0.173799,0.0439 0.341196,0.0915 0.502367,0.14218 0.322417,0.10151 0.62003,0.21595 0.894753,0.34087 0.06868,0.0312 0.135885,0.0631 0.201739,0.0957 3.5e-5,2e-5 6.7e-5,-2e-5 1.35e-4,0 0.197521,0.0975 0.382473,0.20052 0.555573,0.30785 0.115422,0.0716 0.225563,0.14506 0.33073,0.22022 0.105171,0.0751 0.205371,0.1519 0.30076,0.22999 0.190781,0.15615 0.362491,0.31753 0.517022,0.48149 0.154532,0.16396 0.29194,0.33045 0.414039,0.49702 0.0305,0.0416 0.0601,0.0833 0.08873,0.12485 2.1e-5,2e-5 -2.1e-5,1.3e-4 0,1.3e-4 0.02865,0.0415 0.05635,0.0832 0.08318,0.12458 0.05365,0.0831 0.103771,0.16561 0.150512,0.24759 0.467411,0.81983 0.600859,1.57456 0.639016,1.93891 0.0043,0.0407 0.0053,0.0574 0.0058,0.0722 0.0075,0.0929 0.0095,0.15679 0.0095,0.15679 -0.394832,0 -0.770854,-0.0209 -1.128839,-0.0598 -0.178949,-0.0195 -0.353448,-0.0435 -0.523492,-0.0718 -4.3e-5,-1e-5 -6.7e-5,0 -1.35e-4,0 -0.01315,-0.002 -0.02585,-0.005 -0.03895,-0.007 -0.156263,-0.0267 -0.309274,-0.0566 -0.458137,-0.0902 -0.322761,-0.0729 -0.628304,-0.16136 -0.917463,-0.26287 -0.289158,-0.10149 -0.561922,-0.21594 -0.819101,-0.34087 -0.25718,-0.12492 -0.498803,-0.26034 -0.725626,-0.40348 -0.05665,-0.0358 -0.112462,-0.0719 -0.167279,-0.10867 -5.1e-5,-3e-5 -6.8e-5,-6e-5 -1.36e-4,-1.4e-4 -0.164599,-0.11013 -0.320925,-0.22427 -0.469492,-0.34139 -0.198089,-0.15615 -0.382218,-0.31753 -0.553197,-0.4815 -0.12821,-0.12295 -0.249159,-0.24738 -0.362945,-0.37217 -2.2e-5,-3e-5 2.2e-5,-1.4e-4 0,-1.4e-4 -0.03794,-0.0415 -0.07506,-0.0832 -0.111431,-0.12484 -0.145491,-0.16656 -0.278552,-0.33306 -0.400178,-0.49703 -0.121624,-0.16395 -0.231744,-0.32533 -0.331125,-0.48148 -0.09936,-0.15613 -0.188067,-0.30708 -0.266829,-0.4502 -1.9e-5,-4e-5 2e-5,-6e-5 0,-1.4e-4 -0.01355,-0.0246 -0.02519,-0.0476 -0.03816,-0.0717 -0.06242,-0.11624 -0.11978,-0.22819 -0.16926,-0.33161 -0.05976,-0.12493 -0.110388,-0.23938 -0.152757,-0.34087 -0.04238,-0.10151 -0.07647,-0.18999 -0.103114,-0.26286 -0.02729,-0.0747 -0.04258,-0.12059 -0.05294,-0.15342 -0.01504,-0.0463 -0.02376,-0.0756 -0.02376,-0.0756 z m 19.019688,0 c 0,0 -0.009,0.0297 -0.02414,0.0766 -0.0104,0.0328 -0.02566,0.0789 -0.05255,0.1525 -0.02664,0.0728 -0.06072,0.16136 -0.103115,0.26286 -0.04236,0.10149 -0.09299,0.21595 -0.152753,0.34086 -0.04948,0.10344 -0.106846,0.21539 -0.16926,0.33161 -0.08836,0.16454 -0.188504,0.33904 -0.304987,0.52208 -0.09938,0.15616 -0.209499,0.31754 -0.331124,0.48149 -0.121625,0.16396 -0.254687,0.33046 -0.400177,0.49703 -0.03635,0.0416 -0.07353,0.0833 -0.111434,0.12484 -0.113805,0.12482 -0.234711,0.24933 -0.362941,0.37231 -0.170981,0.16397 -0.355112,0.32535 -0.5532,0.4815 -0.148568,0.11711 -0.304892,0.23124 -0.469493,0.34139 -5e-5,4e-5 -6.5e-5,7e-5 -1.34e-4,1.3e-4 -0.05482,0.0366 -0.110624,0.0729 -0.167278,0.10867 -0.226822,0.14314 -0.468448,0.27856 -0.725628,0.40349 -0.257179,0.12492 -0.529943,0.23937 -0.819103,0.34087 -0.289158,0.1015 -0.594701,0.18999 -0.917461,0.26286 -0.148864,0.0336 -0.301873,0.0635 -0.458137,0.0902 -0.01313,0.002 -0.02589,0.005 -0.03908,0.007 -0.170042,0.0283 -0.344543,0.0523 -0.523491,0.0718 -0.357986,0.039 -0.734007,0.0599 -1.128839,0.0599 0,0 0.002,-0.0628 0.0093,-0.15353 5.06e-4,-0.0155 0.0015,-0.0333 0.006,-0.0755 0.03815,-0.36436 0.171602,-1.11908 0.639015,-1.93891 0.04675,-0.0819 0.09686,-0.16462 0.150512,-0.2476 0.02683,-0.0414 0.05453,-0.0831 0.08318,-0.12471 0.31511,-0.45758 0.742161,-0.92004 1.320544,-1.33335 0.105168,-0.0751 0.215308,-0.14863 0.33073,-0.2202 0.692529,-0.42943 1.573966,-0.7886 2.695752,-1.00722 0.186963,-0.0364 0.380497,-0.069 0.581053,-0.0974 0.200558,-0.0283 0.408146,-0.0523 0.622773,-0.0718 0.429257,-0.039 0.887073,-0.0599 1.375471,-0.0599 z"
       id="path4508"
       inkscape:connector-curvature="0"
       sodipodi:nodetypes="ccccccccscccccccccccccccccccscccccccccccccscccccccccccccscccccccccccccccccccccccccccscccccccscccscccccccccccccsc" />
    <path
       style="color:#000000;display:inline;overflow:visible;visibility:visible;opacity:1;vector-effect:none;fill:url(#linearGradient5017);fill-opacity:1;fill-rule:evenodd;stroke:none;stroke-width:0.90120566;stroke-linecap:round;stroke-linejoin:round;stroke-miterlimit:4;stroke-dasharray:none;stroke-dashoffset:0;stroke-opacity:1;marker:none;paint-order:stroke fill markers;enable-background:accumulate"
       d="m 43.605912,147.21408 c -1.446152,0 -2.788631,0.55103 -3.851784,1.19768 0.468646,0.002 0.912065,0.02 1.325825,0.0576 0.429255,0.039 0.829903,0.0964 1.203832,0.16919 0.373928,0.0729 0.721131,0.16136 1.043549,0.26287 0.322418,0.1015 0.620031,0.21594 0.894753,0.34087 0.274723,0.12492 0.526603,0.26035 0.757444,0.40349 0.230844,0.14314 0.440712,0.29403 0.631491,0.45019 0.19078,0.15616 0.362489,0.31753 0.517022,0.4815 0.154532,0.16396 0.29194,0.33045 0.414039,0.49701 0.1221,0.16658 0.22893,0.3332 0.322413,0.49716 0.09348,0.16396 0.17359,0.32534 0.242271,0.48151 0.06868,0.15614 0.125922,0.30703 0.173617,0.45017 0.04769,0.14315 0.08579,0.27858 0.116317,0.4035 0.06104,0.24985 0.09155,0.45798 0.106811,0.60372 0.007,0.0669 0.005,0.0667 0.007,0.10528 l 0.0083,-5.83172 c -1.068924,-0.31325 -2.445306,-0.57002 -3.912913,-0.57008 z m 11.216968,0 c -1.468837,3.3e-4 -2.845891,0.25791 -3.9145,0.57178 l 0.0095,5.83433 c 0.002,-0.0388 -3.8e-5,-0.0398 0.0073,-0.10959 0.01526,-0.14574 0.04576,-0.35388 0.106813,-0.60373 0.03052,-0.12492 0.06862,-0.26034 0.116315,-0.40349 0.04769,-0.14314 0.104937,-0.29403 0.173618,-0.45018 0.06868,-0.15616 0.148788,-0.31754 0.242271,-0.4815 0.09348,-0.16397 0.200311,-0.33058 0.322412,-0.49716 0.122099,-0.16656 0.259509,-0.33305 0.414039,-0.49702 0.154533,-0.16396 0.326242,-0.32534 0.517021,-0.48149 0.190783,-0.15616 0.400648,-0.30705 0.63149,-0.4502 0.230844,-0.14314 0.482724,-0.27856 0.757445,-0.40348 0.274723,-0.12493 0.57234,-0.23937 0.894755,-0.34087 0.322419,-0.10151 0.669621,-0.18999 1.043552,-0.26287 0.373925,-0.0728 0.774575,-0.13015 1.203829,-0.16919 0.413803,-0.0377 0.857259,-0.0562 1.325958,-0.0576 -1.06313,-0.64665 -2.405647,-1.19768 -3.851784,-1.19769 z"
       id="path4908"
       inkscape:connector-curvature="0" />
    <path
       style="color:#000000;display:inline;overflow:visible;visibility:visible;opacity:1;vector-effect:none;fill:url(#radialGradient4627-2);fill-opacity:1;fill-rule:evenodd;stroke:none;stroke-width:1.25269568;stroke-linecap:round;stroke-linejoin:round;stroke-miterlimit:4;stroke-dasharray:none;stroke-dashoffset:0;stroke-opacity:1;marker:none;paint-order:stroke fill markers;enable-background:accumulate"
       d="m 47.518826,137.9353 v 0.19226 c 0.585827,0.096 1.213546,7.01522 1.698013,7.23696 0.547034,-0.2292 1.143624,-7.15649 1.692994,-7.23619 v -0.20143 c -0.561267,-0.0636 -1.127948,-0.0963 -1.695503,-0.0975 -0.567828,0.004 -1.134509,0.0394 -1.695504,0.10581 z"
       id="path4504-3"
       inkscape:connector-curvature="0"
       sodipodi:nodetypes="ccccccc" />
    <ellipse
       style="color:#000000;display:inline;overflow:visible;visibility:visible;opacity:1;vector-effect:none;fill:url(#linearGradient5172);fill-opacity:1;fill-rule:evenodd;stroke:none;stroke-width:2.78187156;stroke-linecap:round;stroke-linejoin:round;stroke-miterlimit:4;stroke-dasharray:none;stroke-dashoffset:0;stroke-opacity:1;marker:none;paint-order:stroke fill markers;enable-background:accumulate"
       id="path5164"
       cx="49.233616"
       cy="147.56241"
       rx="0.64893544"
       ry="0.58494443" />
    <ellipse
       style="color:#000000;display:inline;overflow:visible;visibility:visible;opacity:1;vector-effect:none;fill:url(#linearGradient5172-6);fill-opacity:1;fill-rule:evenodd;stroke:none;stroke-width:2.78187156;stroke-linecap:round;stroke-linejoin:round;stroke-miterlimit:4;stroke-dasharray:none;stroke-dashoffset:0;stroke-opacity:1;marker:none;paint-order:stroke fill markers;enable-background:accumulate"
       id="path5164-3"
       cx="59.629948"
       cy="147.41913"
       rx="0.64893544"
       ry="0.58494449" />
    <ellipse
       style="color:#000000;display:inline;overflow:visible;visibility:visible;opacity:1;vector-effect:none;fill:url(#linearGradient5172-3);fill-opacity:1;fill-rule:evenodd;stroke:none;stroke-width:2.78187156;stroke-linecap:round;stroke-linejoin:round;stroke-miterlimit:4;stroke-dasharray:none;stroke-dashoffset:0;stroke-opacity:1;marker:none;paint-order:stroke fill markers;enable-background:accumulate"
       id="path5164-4"
       cx="38.837284"
       cy="147.41913"
       rx="0.64893544"
       ry="0.58494449" />
    <ellipse
       style="color:#000000;display:inline;overflow:visible;visibility:visible;opacity:1;vector-effect:none;fill:url(#linearGradient5172-4);fill-opacity:1;fill-rule:evenodd;stroke:none;stroke-width:2.78187156;stroke-linecap:round;stroke-linejoin:round;stroke-miterlimit:4;stroke-dasharray:none;stroke-dashoffset:0;stroke-opacity:1;marker:none;paint-order:stroke fill markers;enable-background:accumulate"
       id="path5164-2"
       cx="41.436367"
       cy="146.54541"
       rx="0.64893544"
       ry="0.58494449" />
    <ellipse
       style="color:#000000;display:inline;overflow:visible;visibility:visible;opacity:1;vector-effect:none;fill:url(#linearGradient5172-2);fill-opacity:1;fill-rule:evenodd;stroke:none;stroke-width:2.78187156;stroke-linecap:round;stroke-linejoin:round;stroke-miterlimit:4;stroke-dasharray:none;stroke-dashoffset:0;stroke-opacity:1;marker:none;paint-order:stroke fill markers;enable-background:accumulate"
       id="path5164-44"
       cx="57.030865"
       cy="146.54541"
       rx="0.64893544"
       ry="0.58494449" />
    <ellipse
       style="color:#000000;display:inline;overflow:visible;visibility:visible;opacity:1;vector-effect:none;fill:url(#linearGradient5172-0);fill-opacity:1;fill-rule:evenodd;stroke:none;stroke-width:2.78187156;stroke-linecap:round;stroke-linejoin:round;stroke-miterlimit:4;stroke-dasharray:none;stroke-dashoffset:0;stroke-opacity:1;marker:none;paint-order:stroke fill markers;enable-background:accumulate"
       id="path5164-47"
       cx="46.634533"
       cy="146.59264"
       rx="0.64893544"
       ry="0.58494449" />
    <ellipse
       style="color:#000000;display:inline;overflow:visible;visibility:visible;opacity:1;vector-effect:none;fill:url(#linearGradient5172-38);fill-opacity:1;fill-rule:evenodd;stroke:none;stroke-width:2.78187156;stroke-linecap:round;stroke-linejoin:round;stroke-miterlimit:4;stroke-dasharray:none;stroke-dashoffset:0;stroke-opacity:1;marker:none;paint-order:stroke fill markers;enable-background:accumulate"
       id="path5164-9"
       cx="51.832699"
       cy="146.59264"
       rx="0.64893544"
       ry="0.58494449" />
    <ellipse
       style="color:#000000;display:inline;overflow:visible;visibility:visible;opacity:1;vector-effect:none;fill:url(#linearGradient5172-1);fill-opacity:1;fill-rule:evenodd;stroke:none;stroke-width:2.78187156;stroke-linecap:round;stroke-linejoin:round;stroke-miterlimit:4;stroke-dasharray:none;stroke-dashoffset:0;stroke-opacity:1;marker:none;paint-order:stroke fill markers;enable-background:accumulate"
       id="path5164-1"
       cx="44.03545"
       cy="146.38011"
       rx="0.64893544"
       ry="0.58494449" />
    <ellipse
       style="color:#000000;display:inline;overflow:visible;visibility:visible;opacity:1;vector-effect:none;fill:url(#linearGradient5172-7);fill-opacity:1;fill-rule:evenodd;stroke:none;stroke-width:2.78187156;stroke-linecap:round;stroke-linejoin:round;stroke-miterlimit:4;stroke-dasharray:none;stroke-dashoffset:0;stroke-opacity:1;marker:none;paint-order:stroke fill markers;enable-background:accumulate"
       id="path5164-7"
       cx="54.431786"
       cy="146.40372"
       rx="0.64893544"
       ry="0.58494449" />
  </g>
</svg>
