<?xml version="1.0" encoding="UTF-8" standalone="no"?>
<!-- Created with Inkscape (http://www.inkscape.org/) -->

<svg
   xmlns:dc="http://purl.org/dc/elements/1.1/"
   xmlns:cc="http://creativecommons.org/ns#"
   xmlns:rdf="http://www.w3.org/1999/02/22-rdf-syntax-ns#"
   xmlns:svg="http://www.w3.org/2000/svg"
   xmlns="http://www.w3.org/2000/svg"
   xmlns:xlink="http://www.w3.org/1999/xlink"
   xmlns:sodipodi="http://sodipodi.sourceforge.net/DTD/sodipodi-0.dtd"
   xmlns:inkscape="http://www.inkscape.org/namespaces/inkscape"
   width="128"
   height="128"
   viewBox="0 0 33.866666 33.866666"
   version="1.1"
   id="svg8"
   inkscape:version="0.92.1 r15371"
   sodipodi:docname="logo.svg"
   inkscape:export-filename="D:\Documents\Web\hermod\hermod.png"
   inkscape:export-xdpi="25.4"
   inkscape:export-ydpi="25.4">
  <defs
     id="defs2">
    <linearGradient
       inkscape:collect="always"
       id="linearGradient5170">
      <stop
         style="stop-color:#a0892c;stop-opacity:1"
         offset="0"
         id="stop5166" />
      <stop
         style="stop-color:#b29831;stop-opacity:1"
         offset="1"
         id="stop5168" />
    </linearGradient>
    <linearGradient
       inkscape:collect="always"
       id="linearGradient5162">
      <stop
         style="stop-color:#aaeeff;stop-opacity:1"
         offset="0"
         id="stop5158" />
      <stop
         style="stop-color:#87cdde;stop-opacity:1"
         offset="1"
         id="stop5160" />
    </linearGradient>
    <linearGradient
       inkscape:collect="always"
       id="linearGradient5025">
      <stop
         style="stop-color:#e9ddaf;stop-opacity:1"
         offset="0"
         id="stop5021" />
      <stop
         style="stop-color:#ffeeaa;stop-opacity:1"
         offset="1"
         id="stop5023" />
    </linearGradient>
    <linearGradient
       inkscape:collect="always"
       id="linearGradient5009">
      <stop
         style="stop-color:#d1d1d1;stop-opacity:1"
         offset="0"
         id="stop5005" />
      <stop
         style="stop-color:#bdbdbd;stop-opacity:1"
         offset="1"
         id="stop5007" />
    </linearGradient>
    <linearGradient
       inkscape:collect="always"
       id="linearGradient4638">
      <stop
         style="stop-color:#c3b559;stop-opacity:1"
         offset="0"
         id="stop4634" />
      <stop
         style="stop-color:#b5a642;stop-opacity:1"
         offset="1"
         id="stop4636" />
    </linearGradient>
    <linearGradient
       id="linearGradient4625"
       inkscape:collect="always">
      <stop
         id="stop4629"
         offset="0"
         style="stop-color:#dfd3cc;stop-opacity:1" />
      <stop
         id="stop4631"
         offset="1"
         style="stop-color:#d1d1d1;stop-opacity:1" />
    </linearGradient>
    <radialGradient
       inkscape:collect="always"
       xlink:href="#linearGradient4625"
       id="radialGradient4627"
       cx="77.847008"
       cy="87.107468"
       fx="77.847008"
       fy="87.107468"
       r="45.551498"
       gradientTransform="matrix(0.2482965,0,0,0.16872161,29.885197,131.78102)"
       gradientUnits="userSpaceOnUse" />
    <linearGradient
       inkscape:collect="always"
       xlink:href="#linearGradient4638"
       id="linearGradient4642"
       x1="77.998344"
       y1="101.35945"
       x2="123.39873"
       y2="101.35945"
       gradientUnits="userSpaceOnUse"
       spreadMethod="reflect" />
    <linearGradient
       inkscape:collect="always"
       xlink:href="#linearGradient4638"
       id="linearGradient4882"
       gradientUnits="userSpaceOnUse"
       gradientTransform="scale(3.7795275)"
       x1="77.998344"
       y1="101.35945"
       x2="123.39873"
       y2="101.35945"
       spreadMethod="reflect" />
    <linearGradient
       inkscape:collect="always"
       xlink:href="#linearGradient4638"
       id="linearGradient4967"
       gradientUnits="userSpaceOnUse"
       gradientTransform="matrix(0.26710292,0,0,0.26727186,28.421172,125.80687)"
       x1="77.998344"
       y1="101.35945"
       x2="123.39873"
       y2="101.35945"
       spreadMethod="reflect" />
    <radialGradient
       inkscape:collect="always"
       xlink:href="#linearGradient5009"
       id="radialGradient4627-2"
       cx="77.847008"
       cy="87.107468"
       fx="77.847008"
       fy="87.107468"
       r="45.551498"
       gradientTransform="matrix(0.2482965,0,0,0.14315005,29.885198,132.57774)"
       gradientUnits="userSpaceOnUse" />
    <linearGradient
       inkscape:collect="always"
       xlink:href="#linearGradient4638"
       id="linearGradient5017"
       x1="154.27734"
       y1="358.47559"
       x2="434.17383"
       y2="358.47559"
       gradientUnits="userSpaceOnUse"
       gradientTransform="matrix(0.07067099,0,0,0.07071568,28.421172,125.80687)" />
    <linearGradient
       inkscape:collect="always"
       xlink:href="#linearGradient5025"
       id="linearGradient5029"
       gradientUnits="userSpaceOnUse"
       x1="117.71271"
       y1="84.777306"
       x2="37.952206"
       y2="134.28123"
       gradientTransform="translate(-151.17359,-219.05854)" />
    <linearGradient
       inkscape:collect="always"
       xlink:href="#linearGradient5162"
       id="linearGradient5056"
       x1="66.851097"
       y1="107.17532"
       x2="99.342522"
       y2="112.72491"
       gradientUnits="userSpaceOnUse" />
    <linearGradient
       inkscape:collect="always"
       xlink:href="#linearGradient5162"
       id="linearGradient5063"
       gradientUnits="userSpaceOnUse"
       gradientTransform="translate(-151.17359,-219.05854)"
       x1="115.09159"
       y1="95.090508"
       x2="40.573318"
       y2="115.83101" />
    <linearGradient
       inkscape:collect="always"
       xlink:href="#linearGradient5162"
       id="linearGradient5156"
       x1="35.153542"
       y1="96.769836"
       x2="120.89686"
       y2="96.769836"
       gradientUnits="userSpaceOnUse" />
    <linearGradient
       inkscape:collect="always"
       xlink:href="#linearGradient5170"
       id="linearGradient5172"
       x1="39.621353"
       y1="81.9599"
       x2="36.466034"
       y2="82.438568"
       gradientUnits="userSpaceOnUse"
       gradientTransform="matrix(0.35988134,0,0,0.36010893,35.41588,118.33393)" />
    <linearGradient
       inkscape:collect="always"
       xlink:href="#linearGradient5170"
       id="linearGradient5172-6"
       x1="39.621353"
       y1="81.9599"
       x2="36.466034"
       y2="82.438568"
       gradientUnits="userSpaceOnUse"
       gradientTransform="matrix(0.35988134,0,0,0.36010893,46.284776,118.18224)" />
    <linearGradient
       inkscape:collect="always"
       xlink:href="#linearGradient5170"
       id="linearGradient5172-3"
       x1="39.621353"
       y1="81.9599"
       x2="36.466034"
       y2="82.438568"
       gradientUnits="userSpaceOnUse"
       gradientTransform="matrix(0.35988134,0,0,0.36010893,24.546986,118.18224)" />
    <linearGradient
       inkscape:collect="always"
       xlink:href="#linearGradient5170"
       id="linearGradient5172-4"
       x1="39.621353"
       y1="81.9599"
       x2="36.466034"
       y2="82.438568"
       gradientUnits="userSpaceOnUse"
       gradientTransform="matrix(0.35988134,0,0,0.36010893,27.264209,117.25718)" />
    <linearGradient
       inkscape:collect="always"
       xlink:href="#linearGradient5170"
       id="linearGradient5172-2"
       x1="39.621353"
       y1="81.9599"
       x2="36.466034"
       y2="82.438568"
       gradientUnits="userSpaceOnUse"
       gradientTransform="matrix(0.35988134,0,0,0.36010893,43.567553,117.25718)" />
    <linearGradient
       inkscape:collect="always"
       xlink:href="#linearGradient5170"
       id="linearGradient5172-0"
       x1="39.621353"
       y1="81.9599"
       x2="36.466034"
       y2="82.438568"
       gradientUnits="userSpaceOnUse"
       gradientTransform="matrix(0.35988134,0,0,0.36010893,32.698659,117.30718)" />
    <linearGradient
       inkscape:collect="always"
       xlink:href="#linearGradient5170"
       id="linearGradient5172-38"
       x1="39.621353"
       y1="81.9599"
       x2="36.466034"
       y2="82.438568"
       gradientUnits="userSpaceOnUse"
       gradientTransform="matrix(0.35988134,0,0,0.36010893,38.133104,117.30718)" />
    <linearGradient
       inkscape:collect="always"
       xlink:href="#linearGradient5170"
       id="linearGradient5172-1"
       x1="39.621353"
       y1="81.9599"
       x2="36.466034"
       y2="82.438568"
       gradientUnits="userSpaceOnUse"
       gradientTransform="matrix(0.35988134,0,0,0.36010893,29.981433,117.08216)" />
    <linearGradient
       inkscape:collect="always"
       xlink:href="#linearGradient5170"
       id="linearGradient5172-7"
       x1="39.621353"
       y1="81.9599"
       x2="36.466034"
       y2="82.438568"
       gradientUnits="userSpaceOnUse"
       gradientTransform="matrix(0.35988134,0,0,0.36010893,40.850328,117.10717)" />
  </defs>
  <sodipodi:namedview
     id="base"
     pagecolor="#ffffff"
     bordercolor="#666666"
     borderopacity="1.0"
     inkscape:pageopacity="0.0"
     inkscape:pageshadow="2"
     inkscape:zoom="4"
     inkscape:cx="40.113227"
     inkscape:cy="70.327504"
     inkscape:document-units="mm"
     inkscape:current-layer="layer1"
     showgrid="false"
     showguides="true"
     inkscape:guide-bbox="true"
     inkscape:window-width="1920"
     inkscape:window-height="1017"
     inkscape:window-x="-8"
     inkscape:window-y="-8"
     inkscape:window-maximized="1"
     fit-margin-top="0"
     fit-margin-left="0"
     fit-margin-right="0"
     fit-margin-bottom="0"
     units="px" />
  <metadata
     id="metadata5">
    <rdf:RDF>
      <cc:Work
         rdf:about="">
        <dc:format>image/svg+xml</dc:format>
        <dc:type
           rdf:resource="http://purl.org/dc/dcmitype/StillImage" />
        <dc:title></dc:title>
      </cc:Work>
    </rdf:RDF>
  </metadata>
  <g
     inkscape:label="Calque 1"
     inkscape:groupmode="layer"
     id="layer1"
     transform="translate(-32.281031,-137.8295)">
    <g
       id="g5061"
       transform="matrix(0.29658427,0,0,0.37369618,27.458624,114.97362)">
      <rect
         transform="scale(-1)"
         y="-134.28123"
         x="-113.22139"
         height="49.503933"
         width="79.760506"
         id="rect5019"
         style="color:#000000;display:inline;overflow:visible;visibility:visible;opacity:1;vector-effect:none;fill:url(#linearGradient5063);fill-opacity:1;fill-rule:evenodd;stroke:none;stroke-width:5.44999981;stroke-linecap:round;stroke-linejoin:round;stroke-miterlimit:4;stroke-dasharray:none;stroke-dashoffset:0;stroke-opacity:1;marker:none;paint-order:stroke fill markers;enable-background:accumulate" />
      <path
         transform="matrix(-0.93022997,0,0,0.43524402,145.92251,76.003028)"
         inkscape:transform-center-y="-5.3865703"
         d="m 78.025201,59.641895 42.871659,74.255885 -85.743318,0 z"
         inkscape:randomized="0"
         inkscape:rounded="-3.46945e-018"
         inkscape:flatsided="true"
         sodipodi:arg2="-0.52359878"
         sodipodi:arg1="-1.5707963"
         sodipodi:r2="24.751965"
         sodipodi:r1="49.503925"
         sodipodi:cy="109.14582"
         sodipodi:cx="78.0252"
         sodipodi:sides="3"
         id="path5033-5"
         style="color:#000000;display:inline;overflow:visible;visibility:visible;opacity:1;vector-effect:none;fill:url(#linearGradient5156);fill-opacity:1;fill-rule:evenodd;stroke:none;stroke-width:5.44999981;stroke-linecap:round;stroke-linejoin:round;stroke-miterlimit:4;stroke-dasharray:none;stroke-dashoffset:0;stroke-opacity:1;marker:none;paint-order:stroke fill markers;enable-background:accumulate"
         sodipodi:type="star" />
      <path
         transform="matrix(-0.93022997,0,0,-0.47265687,145.92251,148.06501)"
         inkscape:transform-center-y="5.8495865"
         inkscape:transform-center-x="-2.5310802e-006"
         d="m 78.025201,59.641895 42.871659,74.255885 -85.743318,0 z"
         inkscape:randomized="0"
         inkscape:rounded="-3.46945e-018"
         inkscape:flatsided="true"
         sodipodi:arg2="-0.52359878"
         sodipodi:arg1="-1.5707963"
         sodipodi:r2="24.751965"
         sodipodi:r1="49.503925"
         sodipodi:cy="109.14582"
         sodipodi:cx="78.0252"
         sodipodi:sides="3"
         id="path5033"
         style="color:#000000;display:inline;overflow:visible;visibility:visible;opacity:1;vector-effect:none;fill:url(#linearGradient5056);fill-opacity:1;fill-rule:evenodd;stroke:none;stroke-width:5.44999981;stroke-linecap:round;stroke-linejoin:round;stroke-miterlimit:4;stroke-dasharray:none;stroke-dashoffset:0;stroke-opacity:1;marker:none;paint-order:stroke fill markers;enable-background:accumulate"
         sodipodi:type="star" />
    </g>
    <ellipse
       style="color:#000000;display:inline;overflow:visible;visibility:visible;opacity:1;vector-effect:none;fill:#d45500;fill-opacity:1;fill-rule:evenodd;stroke:#d45500;stroke-width:1.62226915;stroke-linecap:round;stroke-linejoin:round;stroke-miterlimit:4;stroke-dasharray:none;stroke-dashoffset:0;stroke-opacity:1;marker:none;paint-order:stroke fill markers;enable-background:accumulate"
       id="path5124"
       cx="49.199718"
       cy="166.46407"
       rx="11.344843"
       ry="4.4209633" />
    <rect
       transform="scale(-1)"
       y="-166.41727"
       x="-60.238075"
       height="18.576883"
       width="22.076721"
       id="rect5019-6"
       style="color:#000000;display:inline;overflow:visible;visibility:visible;opacity:1;vector-effect:none;fill:none;fill-opacity:1;fill-rule:evenodd;stroke:#d45500;stroke-width:2.23555064;stroke-linecap:round;stroke-linejoin:round;stroke-miterlimit:4;stroke-dasharray:none;stroke-dashoffset:0;stroke-opacity:1;marker:none;paint-order:stroke fill markers;enable-background:accumulate" />
    <path
       style="color:#000000;display:inline;overflow:visible;visibility:visible;opacity:1;vector-effect:none;fill:url(#radialGradient4627);fill-opacity:1;fill-rule:evenodd;stroke:none;stroke-width:1.43082106;stroke-linecap:round;stroke-linejoin:round;stroke-miterlimit:4;stroke-dasharray:none;stroke-dashoffset:0;stroke-opacity:1;marker:none;paint-order:stroke fill markers;enable-background:accumulate"
       d="m 49.214315,137.97094 a 12.166939,10.971469 0 0 0 -12.073696,9.68224 c 0.01393,-0.0185 0.02226,-0.0374 0.03947,-0.0557 0.04252,-0.0451 0.09499,-0.0894 0.156802,-0.13273 0.06181,-0.0434 0.132928,-0.0858 0.21298,-0.1272 0.160102,-0.0828 0.355715,-0.16146 0.582483,-0.23508 0.226768,-0.0736 0.48476,-0.14223 0.769789,-0.20482 0.285029,-0.0626 0.597088,-0.11921 0.931974,-0.16892 0.334885,-0.0497 0.69256,-0.0925 1.068898,-0.12748 0.376339,-0.035 0.771315,-0.0621 1.180702,-0.0805 0.409388,-0.0184 0.833216,-0.0282 1.267247,-0.0282 0.647851,3e-5 1.279261,0.0219 1.876646,0.063 0.597385,0.0411 1.160711,0.10139 1.672777,0.17831 0.256033,0.0385 0.499246,0.081 0.727414,0.12748 0.228169,0.0464 0.441334,0.0968 0.637281,0.15055 0.195948,0.0538 0.374667,0.11097 0.534036,0.1714 0.159369,0.0604 0.299379,0.12402 0.417815,0.19046 0.118349,-0.0664 0.258308,-0.12993 0.417538,-0.19032 0.15923,-0.0604 0.337719,-0.11767 0.533483,-0.17141 0.195765,-0.0537 0.408775,-0.10384 0.63673,-0.15027 0.227952,-0.0464 0.470929,-0.0892 0.726723,-0.12761 0.511588,-0.0769 1.074526,-0.13717 1.671396,-0.17831 0.596871,-0.0411 1.227606,-0.0631 1.874991,-0.0633 0.434012,2e-5 0.85788,0.01 1.267249,0.0282 0.409363,0.0184 0.804246,0.0455 1.180562,0.0805 0.376317,0.035 0.734037,0.0779 1.068901,0.12762 0.334859,0.0497 0.646824,0.10632 0.931833,0.16891 0.28501,0.0626 0.543039,0.13107 0.76979,0.20469 0.22675,0.0736 0.422256,0.15227 0.582345,0.23508 0.08004,0.0414 0.151313,0.0838 0.213117,0.1272 0.0618,0.0434 0.114151,0.0877 0.156665,0.13273 0.014,0.0148 0.02021,0.0303 0.03202,0.0453 a 12.166939,10.971469 0 0 0 -12.065965,-9.67188 z"
       id="path4504"
       inkscape:connector-curvature="0" />
    <path
       style="color:#000000;display:inline;overflow:visible;visibility:visible;opacity:1;vector-effect:none;fill:url(#linearGradient4967);fill-opacity:1;fill-rule:evenodd;stroke:none;stroke-width:0.94814342;stroke-linecap:round;stroke-linejoin:round;stroke-miterlimit:4;stroke-dasharray:none;stroke-dashoffset:0;stroke-opacity:1;marker:none;paint-order:stroke fill markers;enable-background:accumulate"
       d="m 43.350969,146.06829 c -3.472255,8e-5 -6.290353,0.61893 -6.30283,1.38407 h -7.14e-4 v 0.004 c -4.7e-5,3e-4 -6.7e-5,5.6e-4 -1.42e-4,8.2e-4 l 1.42e-4,5.6e-4 v 2.24564 c 0.0024,-0.003 0.0044,-0.006 0,10e-4 0.488897,1.28228 4.312581,6.55722 8.019086,6.58125 2.375234,0.0154 3.403849,0.69171 3.439138,1.73336 h 1.417284 c 0.03528,-1.04147 1.063943,-1.73322 3.439139,-1.73322 3.70677,-0.0242 7.530356,-5.29884 8.019224,-6.58112 -0.0044,-0.007 -0.0024,-0.004 0,-9.7e-4 v -2.24661 -0.005 h -0.0011 c -0.01249,-0.7651 -2.830324,-1.38393 -6.302419,-1.38407 -2.589538,5.6e-4 -4.914062,0.35007 -5.860861,0.88119 -0.947477,-0.5315 -3.274561,-0.88108 -5.865965,-0.88119 z m 18.030351,3.63565 v 9.8e-4 c 0.0069,0.009 0.0031,0.003 0,-9.8e-4 z m -24.333871,7.1e-4 v -10e-4 c -0.0031,0.004 -0.007,0.0106 0,10e-4 z m 2.224756,-0.67345 c 0.510595,0 0.989222,0.0221 1.437988,0.0634 0.224383,0.0207 0.44127,0.0461 0.650946,0.0761 4.5e-5,1e-5 7.1e-5,0 1.42e-4,0 0.209673,0.03 0.412004,0.0645 0.607466,0.10304 0.09773,0.0193 0.193659,0.0396 0.287929,0.0609 4.4e-5,1e-5 7.1e-5,-1e-5 1.42e-4,0 0.09422,0.0213 0.186746,0.0436 0.277576,0.0668 4.3e-5,1e-5 7.1e-5,-2e-5 1.42e-4,0 0.181699,0.0465 0.356705,0.0968 0.525201,0.15054 0.337073,0.10747 0.648214,0.22864 0.935424,0.3609 0.0718,0.0331 0.142062,0.0668 0.210909,0.10124 3.7e-5,2e-5 7e-5,-2e-5 1.41e-4,0 0.206499,0.10321 0.399858,0.21231 0.580827,0.32595 0.120668,0.0758 0.235815,0.15358 0.345763,0.23315 0.109951,0.0795 0.214706,0.16083 0.314431,0.2435 0.199452,0.16533 0.378967,0.33619 0.540523,0.50978 0.161556,0.1736 0.30521,0.34987 0.432859,0.52623 0.03189,0.0441 0.06283,0.0882 0.09276,0.13218 2.2e-5,3e-5 -2.2e-5,1.4e-4 0,1.4e-4 0.02995,0.044 0.05891,0.088 0.08696,0.1319 0.05609,0.0879 0.108487,0.17534 0.157353,0.26214 0.488657,0.86799 0.628171,1.66706 0.668062,2.05283 0.0045,0.0431 0.0055,0.0608 0.0061,0.0765 0.0078,0.0983 0.0099,0.16601 0.0099,0.16601 -0.412779,0 -0.805893,-0.0221 -1.18015,-0.0634 -0.187083,-0.0207 -0.369514,-0.0461 -0.547287,-0.0761 -4.5e-5,-1e-5 -7e-5,0 -1.41e-4,0 -0.01375,-0.002 -0.02702,-0.005 -0.04072,-0.007 -0.163366,-0.0283 -0.323332,-0.06 -0.478961,-0.0956 -0.337432,-0.0772 -0.656863,-0.17084 -0.959166,-0.27831 -0.302302,-0.10746 -0.587464,-0.22863 -0.856333,-0.3609 -0.26887,-0.13226 -0.521476,-0.27564 -0.758609,-0.42719 -0.05923,-0.0379 -0.117574,-0.0762 -0.174883,-0.11505 -5.3e-5,-4e-5 -7.1e-5,-7e-5 -1.42e-4,-1.5e-4 -0.17208,-0.11661 -0.335512,-0.23745 -0.490832,-0.36145 -0.207093,-0.16533 -0.399592,-0.33619 -0.578343,-0.50979 -0.134037,-0.13017 -0.260484,-0.26191 -0.379442,-0.39404 -2.3e-5,-3e-5 2.3e-5,-1.4e-4 0,-1.4e-4 -0.03966,-0.044 -0.07847,-0.0881 -0.116496,-0.13218 -0.152104,-0.17635 -0.291214,-0.35263 -0.418368,-0.52623 -0.127152,-0.17359 -0.242278,-0.34445 -0.346176,-0.50978 -0.103876,-0.1653 -0.196616,-0.32511 -0.278958,-0.47664 -2e-5,-4e-5 2.1e-5,-7e-5 0,-1.5e-4 -0.01417,-0.0261 -0.02633,-0.0504 -0.03989,-0.076 -0.06526,-0.12306 -0.125225,-0.24159 -0.176954,-0.35109 -0.06248,-0.13227 -0.115406,-0.25345 -0.1597,-0.3609 -0.04431,-0.10747 -0.07995,-0.20115 -0.107801,-0.2783 -0.02853,-0.0791 -0.04452,-0.12768 -0.05535,-0.16243 -0.01572,-0.0491 -0.02484,-0.0801 -0.02484,-0.0801 z m 19.88422,0 c 0,0 -0.0094,0.0315 -0.02524,0.0811 -0.01087,0.0348 -0.02683,0.0836 -0.05494,0.16146 -0.02785,0.0771 -0.06348,0.17084 -0.107802,0.2783 -0.04429,0.10745 -0.09722,0.22864 -0.159697,0.3609 -0.05173,0.10951 -0.111702,0.22804 -0.176953,0.35109 -0.09238,0.17421 -0.197073,0.35896 -0.31885,0.55275 -0.103896,0.16533 -0.219022,0.33619 -0.346175,0.50978 -0.127154,0.1736 -0.266264,0.34987 -0.418367,0.52623 -0.038,0.0441 -0.07687,0.0882 -0.116499,0.13218 -0.118978,0.13215 -0.24538,0.26398 -0.379439,0.39418 -0.178753,0.1736 -0.371253,0.34446 -0.578345,0.50979 -0.155321,0.124 -0.318751,0.24483 -0.490834,0.36145 -5.2e-5,4e-5 -6.8e-5,7e-5 -1.4e-4,1.4e-4 -0.05731,0.0388 -0.115652,0.0772 -0.174881,0.11505 -0.237133,0.15156 -0.489741,0.29493 -0.758611,0.4272 -0.26887,0.13226 -0.554032,0.25343 -0.856335,0.3609 -0.302302,0.10746 -0.621733,0.20115 -0.959164,0.2783 -0.155631,0.0356 -0.315595,0.0673 -0.478962,0.0956 -0.01373,0.002 -0.02707,0.005 -0.04086,0.007 -0.177771,0.03 -0.360204,0.0554 -0.547286,0.0761 -0.374258,0.0413 -0.767371,0.0634 -1.18015,0.0634 0,0 0.0021,-0.0665 0.0097,-0.16256 5.29e-4,-0.0164 0.0016,-0.0353 0.0063,-0.08 0.03989,-0.38578 0.179403,-1.18484 0.668062,-2.05283 0.04887,-0.0868 0.101259,-0.1743 0.157353,-0.26215 0.02805,-0.0439 0.05701,-0.088 0.08696,-0.13204 0.329433,-0.48446 0.775896,-0.9741 1.380569,-1.41169 0.109948,-0.0796 0.225094,-0.15736 0.345763,-0.23314 0.724008,-0.45466 1.64551,-0.83493 2.818286,-1.06639 0.195461,-0.0386 0.397793,-0.0731 0.607465,-0.10304 0.209674,-0.03 0.426698,-0.0554 0.651081,-0.0761 0.448768,-0.0413 0.927394,-0.0634 1.437992,-0.0634 z"
       id="path4508"
       inkscape:connector-curvature="0"
       sodipodi:nodetypes="ccccccccscccccccccccccccccccscccccccccccccscccccccccccccscccccccccccccccccccccccccccscccccccscccscccccccccccccsc" />
    <path
       style="color:#000000;display:inline;overflow:visible;visibility:visible;opacity:1;vector-effect:none;fill:url(#linearGradient5017);fill-opacity:1;fill-rule:evenodd;stroke:none;stroke-width:0.94814342;stroke-linecap:round;stroke-linejoin:round;stroke-miterlimit:4;stroke-dasharray:none;stroke-dashoffset:0;stroke-opacity:1;marker:none;paint-order:stroke fill markers;enable-background:accumulate"
       d="m 43.350969,147.76547 c -1.511887,0 -2.915387,0.58341 -4.026866,1.26805 0.489949,0.002 0.953523,0.0212 1.38609,0.061 0.448767,0.0413 0.867626,0.10198 1.258552,0.17913 0.390925,0.0772 0.75391,0.17084 1.090983,0.27831 0.337073,0.10746 0.648214,0.22863 0.935424,0.3609 0.28721,0.13226 0.550539,0.27564 0.791873,0.42719 0.241337,0.15156 0.460744,0.31131 0.660195,0.47664 0.199452,0.16533 0.378966,0.33619 0.540523,0.50979 0.161556,0.1736 0.30521,0.34987 0.432859,0.52622 0.12765,0.17636 0.239336,0.35277 0.337068,0.52637 0.09773,0.17359 0.181481,0.34445 0.253284,0.50979 0.0718,0.16533 0.131645,0.32508 0.181508,0.47663 0.04986,0.15156 0.08969,0.29494 0.121604,0.4272 0.06382,0.26453 0.09571,0.48489 0.111666,0.6392 0.0073,0.0709 0.0052,0.0706 0.0073,0.11146 l 0.0087,-6.17436 c -1.117511,-0.33165 -2.556456,-0.60351 -4.090773,-0.60357 z m 11.72683,0 c -1.535602,3.5e-4 -2.97525,0.27306 -4.092432,0.60537 l 0.0099,6.17712 c 0.0021,-0.0411 -4e-5,-0.0422 0.0076,-0.11602 0.01595,-0.15431 0.04784,-0.37467 0.111668,-0.6392 0.03191,-0.13226 0.07174,-0.27564 0.121602,-0.4272 0.04986,-0.15155 0.109707,-0.3113 0.18151,-0.47663 0.0718,-0.16534 0.155551,-0.3362 0.253283,-0.50979 0.09773,-0.1736 0.209417,-0.35001 0.337068,-0.52637 0.127648,-0.17635 0.271304,-0.35262 0.432858,-0.52622 0.161558,-0.1736 0.341072,-0.34446 0.540523,-0.50979 0.199454,-0.16533 0.418859,-0.32508 0.660194,-0.47664 0.241337,-0.15155 0.504666,-0.29493 0.791874,-0.42719 0.28721,-0.13227 0.598355,-0.25344 0.935426,-0.3609 0.337074,-0.10747 0.700058,-0.20115 1.090986,-0.27831 0.390921,-0.0771 0.809783,-0.1378 1.258548,-0.17913 0.432613,-0.0399 0.896226,-0.0595 1.386229,-0.061 -1.111454,-0.68464 -2.514994,-1.26804 -4.026865,-1.26805 z"
       id="path4908"
       inkscape:connector-curvature="0" />
    <path
       style="color:#000000;display:inline;overflow:visible;visibility:visible;opacity:1;vector-effect:none;fill:url(#radialGradient4627-2);fill-opacity:1;fill-rule:evenodd;stroke:none;stroke-width:1.31794024;stroke-linecap:round;stroke-linejoin:round;stroke-miterlimit:4;stroke-dasharray:none;stroke-dashoffset:0;stroke-opacity:1;marker:none;paint-order:stroke fill markers;enable-background:accumulate"
       d="m 47.441743,137.94153 v 0.20355 c 0.612455,0.10171 1.268707,7.42739 1.775195,7.66216 0.571899,-0.24266 1.195607,-7.57696 1.769948,-7.66134 v -0.21327 c -0.586779,-0.0674 -1.179218,-0.10187 -1.772571,-0.10313 -0.593638,0.004 -1.186078,0.0417 -1.772572,0.11203 z"
       id="path4504-3"
       inkscape:connector-curvature="0"
       sodipodi:nodetypes="ccccccc" />
    <ellipse
       style="color:#000000;display:inline;overflow:visible;visibility:visible;opacity:1;vector-effect:none;fill:url(#linearGradient5172);fill-opacity:1;fill-rule:evenodd;stroke:none;stroke-width:2.92676044;stroke-linecap:round;stroke-linejoin:round;stroke-miterlimit:4;stroke-dasharray:none;stroke-dashoffset:0;stroke-opacity:1;marker:none;paint-order:stroke fill markers;enable-background:accumulate"
       id="path5164"
       cx="49.234478"
       cy="148.13426"
       rx="0.67843252"
       ry="0.61931229" />
    <ellipse
       style="color:#000000;display:inline;overflow:visible;visibility:visible;opacity:1;vector-effect:none;fill:url(#linearGradient5172-6);fill-opacity:1;fill-rule:evenodd;stroke:none;stroke-width:2.92676044;stroke-linecap:round;stroke-linejoin:round;stroke-miterlimit:4;stroke-dasharray:none;stroke-dashoffset:0;stroke-opacity:1;marker:none;paint-order:stroke fill markers;enable-background:accumulate"
       id="path5164-3"
       cx="60.103371"
       cy="147.98257"
       rx="0.67843252"
       ry="0.61931235" />
    <ellipse
       style="color:#000000;display:inline;overflow:visible;visibility:visible;opacity:1;vector-effect:none;fill:url(#linearGradient5172-3);fill-opacity:1;fill-rule:evenodd;stroke:none;stroke-width:2.92676044;stroke-linecap:round;stroke-linejoin:round;stroke-miterlimit:4;stroke-dasharray:none;stroke-dashoffset:0;stroke-opacity:1;marker:none;paint-order:stroke fill markers;enable-background:accumulate"
       id="path5164-4"
       cx="38.365585"
       cy="147.98257"
       rx="0.67843252"
       ry="0.61931235" />
    <ellipse
       style="color:#000000;display:inline;overflow:visible;visibility:visible;opacity:1;vector-effect:none;fill:url(#linearGradient5172-4);fill-opacity:1;fill-rule:evenodd;stroke:none;stroke-width:2.92676044;stroke-linecap:round;stroke-linejoin:round;stroke-miterlimit:4;stroke-dasharray:none;stroke-dashoffset:0;stroke-opacity:1;marker:none;paint-order:stroke fill markers;enable-background:accumulate"
       id="path5164-2"
       cx="41.082809"
       cy="147.05751"
       rx="0.67843252"
       ry="0.61931235" />
    <ellipse
       style="color:#000000;display:inline;overflow:visible;visibility:visible;opacity:1;vector-effect:none;fill:url(#linearGradient5172-2);fill-opacity:1;fill-rule:evenodd;stroke:none;stroke-width:2.92676044;stroke-linecap:round;stroke-linejoin:round;stroke-miterlimit:4;stroke-dasharray:none;stroke-dashoffset:0;stroke-opacity:1;marker:none;paint-order:stroke fill markers;enable-background:accumulate"
       id="path5164-44"
       cx="57.38615"
       cy="147.05751"
       rx="0.67843252"
       ry="0.61931235" />
    <ellipse
       style="color:#000000;display:inline;overflow:visible;visibility:visible;opacity:1;vector-effect:none;fill:url(#linearGradient5172-0);fill-opacity:1;fill-rule:evenodd;stroke:none;stroke-width:2.92676044;stroke-linecap:round;stroke-linejoin:round;stroke-miterlimit:4;stroke-dasharray:none;stroke-dashoffset:0;stroke-opacity:1;marker:none;paint-order:stroke fill markers;enable-background:accumulate"
       id="path5164-47"
       cx="46.517258"
       cy="147.10751"
       rx="0.67843252"
       ry="0.61931235" />
    <ellipse
       style="color:#000000;display:inline;overflow:visible;visibility:visible;opacity:1;vector-effect:none;fill:url(#linearGradient5172-38);fill-opacity:1;fill-rule:evenodd;stroke:none;stroke-width:2.92676044;stroke-linecap:round;stroke-linejoin:round;stroke-miterlimit:4;stroke-dasharray:none;stroke-dashoffset:0;stroke-opacity:1;marker:none;paint-order:stroke fill markers;enable-background:accumulate"
       id="path5164-9"
       cx="51.951702"
       cy="147.10751"
       rx="0.67843252"
       ry="0.61931235" />
    <ellipse
       style="color:#000000;display:inline;overflow:visible;visibility:visible;opacity:1;vector-effect:none;fill:url(#linearGradient5172-1);fill-opacity:1;fill-rule:evenodd;stroke:none;stroke-width:2.92676044;stroke-linecap:round;stroke-linejoin:round;stroke-miterlimit:4;stroke-dasharray:none;stroke-dashoffset:0;stroke-opacity:1;marker:none;paint-order:stroke fill markers;enable-background:accumulate"
       id="path5164-1"
       cx="43.800034"
       cy="146.88249"
       rx="0.67843252"
       ry="0.61931235" />
    <ellipse
       style="color:#000000;display:inline;overflow:visible;visibility:visible;opacity:1;vector-effect:none;fill:url(#linearGradient5172-7);fill-opacity:1;fill-rule:evenodd;stroke:none;stroke-width:2.92676044;stroke-linecap:round;stroke-linejoin:round;stroke-miterlimit:4;stroke-dasharray:none;stroke-dashoffset:0;stroke-opacity:1;marker:none;paint-order:stroke fill markers;enable-background:accumulate"
       id="path5164-7"
       cx="54.66893"
       cy="146.90749"
       rx="0.67843252"
       ry="0.61931235" />
  </g>
</svg>
