<svg xmlns="http://www.w3.org/2000/svg" xmlns:xlink="http://www.w3.org/1999/xlink" height="128" width="128" version="1.1" viewBox="0 0 34 34">
      <defs>
        <radialGradient id="capGradient" gradientUnits="userSpaceOnUse" cx="49.24" cy="217" gradientTransform="scale(1,0.670980993)" r="10.68">
          <stop style="stop-color:#dfd3cc;" offset="0"/>
          <stop style="stop-color:#d1d1d1;" offset="1"/>
        </radialGradient>
        <radialGradient id="crestGradient" gradientUnits="userSpaceOnUse" cx="49.24" cy="254" gradientTransform="scale(1,0.569286637)" r="10.68">
          <stop style="stop-color:#d1d1d1;" offset="0"/>
          <stop style="stop-color:#bdbdbd;" offset="1"/>
        </radialGradient>
        <linearGradient id="enveloppeBodyGradient" gradientUnits="userSpaceOnUse" x1="6.33632244" y1="22.17932028" x2="27.3293299" y2="14.76719241" >
          <stop style="stop-color:#aaeeff;" offset="0"/>
          <stop style="stop-color:#87cdde;" offset="1"/>
        </linearGradient>
        <linearGradient id="enveloppeBottomGradient" gradientUnits="userSpaceOnUse" x2="120.9"  y2="96.77" x1="35.154" y1="96.77">
          <stop style="stop-color:#aaeeff;" offset="0"/>
          <stop style="stop-color:#87cdde;" offset="1"/>
        </linearGradient>
        <linearGradient id="enveloppeTopGradient" gradientUnits="userSpaceOnUse" x1="66.851" y1="107.18" x2="99.343" y2="112.72">
          <stop style="stop-color:#aaeeff;" offset="0"/>
          <stop style="stop-color:#87cdde;" offset="1"/>
        </linearGradient>
        <linearGradient id="spectaclesGradient" gradientUnits="userSpaceOnUse" x1="39.75" y1="150" x2="58.67" y2="150">
          <stop style="stop-color:#c3b559;" offset="0"/>
          <stop style="stop-color:#b5a642;" offset="1"/>
        </linearGradient>
        <linearGradient id="nasalGradient" spreadMethod="reflect" gradientUnits="userSpaceOnUse" x1="49.24" y1="150" x2="60.84" y2="150">
          <stop style="stop-color:#c3b559;" offset="0"/>
          <stop style="stop-color:#b5a642;" offset="1"/>
        </linearGradient>
        <linearGradient id="rivetGradient" gradientUnits="userSpaceOnUse" x1="17.368969" y1="9.4605" x2="16.288969" y2="9.6305">
          <stop style="stop-color:#a0892c;" offset="0"/>
          <stop style="stop-color:#b29831;" offset="1"/>
        </linearGradient>
      </defs>
        <g id="enveloppe">
          <rect fill="url(#enveloppeBodyGradient)" x="5.615751643" y="9.744593382" width="22.62734146" height="16.094906232"/>
          <g transform="matrix(-0.26389628,0,0,0.153623063,37.520161257,5.238382478)">
            <path id="enveloppeBottom" fill="url(#enveloppeBottomGradient)" d="m78.025,59.642l42.872,74.256h-85.743z"/>
            <path fill="url(#enveloppeTopGradient)" d="m78.025,59.642l42.872,74.256h-85.743z" transform="matrix(1,0,0,-1,0,155.461832339)"/>
          </g>
        </g>
      <g transform="translate(-32.281031,-137.8295)">
        <path id="beard" style="stroke-linecap:round;stroke-width:1.7;stroke:#d45500;fill:#d45500;" d="m38.422,148.046,0,16.261c0,2.783,7.610,6.54,10.778,6.5394,3.1686,0 10.778-3.7558,10.778-6.5394l0-16.26113-0.21996,0,0,10.34513c0,3.2881-2.6807,5.9351-6.0106,5.9351l-9.0955,0c-3.3299,0-6.0106-2.6471-6.0106-5.9351l0-10.34513z"/>
        <path id="cap" fill="url(#capGradient)" d="m49.214,137.96c-5.6339,0.004-10.887,4.1632-11.549,9.1449l23.09-0.01c-0.66666-4.9761-5.9132-9.1288-11.541-9.1352z"/>
        <path id="crest" fill="url(#crestGradient)" d="m47.519,137.94v0.19226c0.58583,0.096,1.2135,7.0152,1.698,7.237,0.54703-0.2292,1.1436-7.1565,1.693-7.2362v-0.20143c-0.56127-0.0636-1.1279-0.0963-1.6955-0.0975-0.56783,0.004-1.1345,0.0394-1.6955,0.10581z"/>
        <path id="spectacles" d="m50.91,153.74c0-5.377,5.4662-5.3314,8.8635-5.3314v-1.5573h-21.125v1.557c3.429,0,8.8711,0.009,8.8711,5.3302z" fill="url(#spectaclesGradient)"/>
        <path id="nasal" d="m43.592,145.61c-3.3213,0.00007-6.0156,0.5837-6.0275,1.3064v2.1332c0.46764,1.2111,4.1276,6.1867,7.6729,6.2094,2.272,0.0145,3.257,0.65327,3.2908,1.6371h1.356c0.03375-0.98367,1.0106-1.6371,3.2825-1.6371,3.5456-0.0228,7.2053-4.9983,7.6729-6.2094-0.00018-0.73136,0.0056-1.4996,0-2.1332-0.0064-0.72273-2.7064-1.3062-6.0275-1.3064-2.477,0.00053-4.7002,0.33345-5.6059,0.83509-0.90628-0.502-3.1354-0.83498-5.6141-0.83509zm3.9274,2.7037-0.0083,5.424c-4.4415,0.006-6.9565-2.7306-7.8218-5.3247,2.5417-1.4499,7.8301-0.0992,7.8301-0.0992zm11.195,0.0992c-1.5309,4.1306-4.9661,5.3169-7.8052,5.3247v-5.424s5.4327-1.3162,7.8052,0.0992z" fill="url(#nasalGradient)"/>
      </g>
      <circle id="rivet" fill="url(#rivetGradient)" r="0.6" cx="16.952969" cy="10.1305"/>
      <use xlink:href="#rivet" transform="translate(10.4,-0.5)"/>
      <use xlink:href="#rivet" transform="translate(-10.4,-0.5)"/>
      <use xlink:href="#rivet" transform="translate(-7.9,-1.2)"/>
      <use xlink:href="#rivet" transform="translate(7.9,-1.2)"/>
      <use xlink:href="#rivet" transform="translate(-5.3,-1.3)"/>
      <use xlink:href="#rivet" transform="translate(5.3,-1.3)"/>
      <use xlink:href="#rivet" transform="translate(-2.6,-1.0)"/>
      <use xlink:href="#rivet" transform="translate(2.6,-1.0)"/>
    </svg>
